<svg width="70" height="70" viewBox="0 0 70 70" fill="none" xmlns="http://www.w3.org/2000/svg">
<g clip-path="url(#clip0_53622_15866)">
<rect width="70" height="70" rx="35" fill="white"/>
<path d="M72.4997 -2.49976H-2.5V72.5H72.4997V-2.49976Z" fill="#ADB0D9"/>
<path d="M43.5348 72.5H10.1599C10.2799 72.14 10.3999 71.795 10.5199 71.45C12.9049 64.4001 13.8349 57.5601 13.9699 50.1651C22.4149 52.3101 31.2948 51.3951 40.0098 51.3051C43.2498 51.2751 42.1698 53.8101 42.1998 56.1801C42.2448 59.1351 42.4098 62.0901 42.6648 65.0301C42.8748 67.52 43.1748 70.01 43.5348 72.5Z" fill="#ADB0D9"/>
<path d="M43.5348 72.5H10.1599C10.2799 72.14 10.3999 71.795 10.5199 71.45C12.9049 64.4001 13.8349 57.5601 13.9699 50.1651C22.4149 52.3101 31.2948 51.3951 40.0098 51.3051C43.2498 51.2751 42.1698 53.8101 42.1998 56.1801C42.2448 59.1351 42.4098 62.0901 42.6648 65.0301C42.8748 67.52 43.1748 70.01 43.5348 72.5Z" fill="#E8AE8E"/>
<path d="M19.8649 56.195C19.9249 56.255 19.9699 56.33 20.0299 56.39C20.7199 57.215 21.4249 58.025 22.2499 58.73C26.5249 62.36 33.1699 62.78 38.4199 63.8C41.6149 64.43 44.8099 64.535 47.9598 63.56C51.5898 62.45 54.8448 59.99 56.6748 56.66C58.9398 52.505 58.8498 47.5251 58.6998 42.8001C58.6098 40.1151 58.5348 37.4301 58.4448 34.7451C58.3848 33.0651 58.3398 31.3701 58.4298 29.6901C58.6398 25.5501 59.7198 21.2901 58.8348 17.1652C58.0998 13.7302 55.2198 10.1602 52.0248 8.70519C46.9698 6.4102 40.9249 5.8102 35.4499 6.4252C31.4899 6.87519 27.4699 7.34019 23.8399 8.96019C20.5699 10.4152 16.34 12.2602 14.6 15.5002C12.395 19.6102 11.135 24.3651 10.595 28.9851C10.145 32.7951 10.235 36.6801 10.835 40.4751C11.405 44.0601 12.365 47.3301 14.735 50.12C16.43 52.16 18.1549 54.185 19.8649 56.195Z" fill="#F4C19F"/>
<path d="M43.595 44.5401C43.145 44.5401 42.785 44.1801 42.77 43.7301C42.755 43.2801 43.115 42.8901 43.58 42.8901C45.635 42.8451 46.46 42.2451 47.855 40.9701C46.265 37.4002 45.32 33.6202 45.065 29.7202C45.035 29.2702 45.38 28.8652 45.83 28.8352C46.28 28.8052 46.67 29.1502 46.715 29.6002C46.97 33.4402 47.975 37.3252 49.61 40.8052C49.76 41.1352 49.6849 41.5101 49.4299 41.7651C47.525 43.5501 46.4 44.4801 43.64 44.5401C43.61 44.5401 43.61 44.5401 43.595 44.5401Z" fill="#1B1464"/>
<path d="M36.9748 36.5693C38.1735 36.4906 39.0375 34.7849 38.9045 32.7596C38.7716 30.7342 37.6921 29.1561 36.4934 29.2347C35.2947 29.3134 34.4308 31.0191 34.5637 33.0445C34.6966 35.0698 35.7761 36.648 36.9748 36.5693Z" fill="#1B1464"/>
<path d="M53.6406 36.1042C54.8393 36.0255 55.7032 34.3199 55.5703 32.2945C55.4374 30.2691 54.3579 28.691 53.1592 28.7697C51.9605 28.8483 51.0965 30.554 51.2295 32.5794C51.3624 34.6048 52.4419 36.1829 53.6406 36.1042Z" fill="#1B1464"/>
<path d="M57.3947 29.2851C57.1547 29.2851 56.9297 29.1801 56.7647 29.0001C53.8547 25.5651 50.4348 25.6251 50.4048 25.6251C49.9398 25.6401 49.5648 25.2801 49.5498 24.8301C49.5348 24.3801 49.8948 23.9901 50.3448 23.9751C50.5098 23.9751 54.5898 23.8851 58.0097 27.9351C58.3097 28.2801 58.2647 28.8051 57.9197 29.1051C57.7697 29.2101 57.5897 29.2851 57.3947 29.2851Z" fill="#1B1464"/>
<path d="M29.1199 30.6351C29.0599 30.6351 28.9999 30.6351 28.9399 30.6201C28.4899 30.5301 28.2049 30.0801 28.3099 29.6301C28.3399 29.4501 29.2999 25.3251 37.7298 22.9851C38.1648 22.8651 38.6298 23.1201 38.7498 23.5551C38.8698 23.9901 38.6148 24.4551 38.1798 24.5751C30.8299 26.6151 29.9299 29.9601 29.9299 29.9901C29.8399 30.3801 29.5099 30.6351 29.1199 30.6351Z" fill="#1B1464"/>
<path d="M43.7749 53.0151C43.1299 53.0151 42.4399 52.9251 41.7649 52.7301C40.1749 52.2801 38.7649 51.3651 37.5049 50.5701C37.1149 50.3301 37.0099 49.8201 37.2499 49.4301C37.4899 49.0401 37.9999 48.9351 38.3899 49.1751C39.6049 49.9551 40.8499 50.7501 42.2149 51.1401C43.6249 51.5451 44.9599 51.4101 45.9049 50.7801C46.2799 50.5251 46.7899 50.6301 47.0449 51.0051C47.2999 51.3801 47.1949 51.8901 46.8199 52.1451C45.9649 52.7301 44.9149 53.0151 43.7749 53.0151Z" fill="#1B1464"/>
<path d="M13.8351 42.8151C13.2651 40.2951 13.8951 37.4451 14.0151 34.8651C14.0301 34.5351 14.0601 34.1751 14.2701 33.9501C14.7051 33.4851 15.4251 33.9051 16.0101 34.1001C17.1051 34.4601 18.335 33.8751 19.055 32.9301C19.91 31.8201 20.1651 30.3052 20.1951 28.8652C20.2101 28.0552 20.15 27.3502 19.8351 26.6302C19.6401 26.1952 19.22 24.9352 18.74 24.7702C20.675 25.4302 23.015 25.3252 24.455 23.7952C24.89 23.3452 25.205 22.7902 25.49 22.2052C26.225 20.6752 26.945 17.9602 25.565 16.6102C26.9 17.9602 28.805 18.9202 30.68 18.4702C32.585 18.0052 34.04 15.5602 33.11 13.7152C34.07 15.7252 35.255 17.9452 37.31 18.4852C39.59 19.0852 42.095 16.7602 41.855 14.2702C42.86 16.7902 44.405 19.3252 46.8049 20.2852C49.2199 21.2452 52.5199 19.8052 52.7749 17.0752C52.7149 17.7952 52.4299 18.5602 52.4599 19.2652C52.5949 21.9202 54.9799 23.9602 56.9899 25.1452C58.9099 26.2702 61.1599 27.5152 63.4699 27.1402C65.6449 26.7802 66.7249 24.9352 67.0549 22.7452C67.2649 21.3052 67.1749 19.6702 66.2299 18.6202C65.1649 20.2852 63.1999 21.2452 61.3099 21.0052C62.3899 20.3602 63.1999 19.0702 63.0199 17.7652C62.8099 16.2052 61.2949 15.5902 60.0349 15.8902C61.2799 14.2852 62.9299 13.1002 62.8249 10.7302C62.7199 8.10523 60.6049 5.42024 58.5199 4.23524C57.4399 3.62024 56.1649 3.26024 54.9649 3.56024C53.7649 3.86024 52.6999 4.92524 52.5949 6.23023C52.2799 3.66524 50.6449 1.43025 48.6049 0.0352554C46.5649 -1.35974 44.15 -2.00474 41.75 -2.34974C40.205 -2.55974 38.57 -2.64974 37.175 -1.92974C35.78 -1.20974 34.76 0.575254 35.285 2.12025C33.485 -0.684742 30.26 -2.18474 27.08 -2.39474C23.9 -2.60474 20.735 -1.67474 17.7651 -0.459742C16.6251 0.00525594 15.4551 0.575254 14.7651 1.64025C13.2951 3.95024 14.9001 7.04023 16.5951 9.18522C15.5901 6.98023 12.8901 6.47023 10.5951 6.42523C8.2101 6.38023 5.3301 6.83023 4.3251 9.15522C3.24511 11.6602 5.1201 14.4352 6.8601 16.4752C4.26511 15.3202 0.920122 17.5552 0.770123 20.5402C0.620123 23.5252 3.72511 26.1502 6.4101 25.2952C5.7651 24.4102 4.3101 24.7552 3.7251 25.7002C3.14011 26.6452 3.23011 27.8752 3.47011 28.9702C3.86011 30.7552 4.61011 32.4351 5.6601 33.8901C6.4701 35.0001 8.25508 35.9001 8.91508 34.6701C7.01009 34.8501 5.2701 36.3801 4.7601 38.3451C4.23511 40.3101 4.9551 42.5751 6.4851 43.8051C7.1601 44.3451 8.0451 44.7051 8.87009 44.4951C9.69509 44.2851 10.3851 43.3551 10.1751 42.4851C9.35008 42.1101 8.36009 42.8151 8.07509 43.7301C7.80509 44.6451 8.06009 45.6351 8.45009 46.5051C9.14009 48.0651 10.2501 49.4151 11.6001 50.3601C11.9001 50.5701 12.2601 50.7801 12.6201 50.7201C13.1751 50.6301 13.4901 50.0151 13.6851 49.4601C14.4201 47.2401 14.3301 45.0801 13.8351 42.8151Z" fill="#444DF2"/>
<path d="M14.9147 27.7852C13.9547 26.6452 12.6197 25.8952 10.7897 25.8502C8.10476 25.7902 5.52477 27.6352 4.56477 30.1402C3.00478 34.1751 5.61477 39.1101 9.13976 41.1801C12.2747 43.0251 15.9497 41.9451 16.8647 38.3001C17.2697 36.6801 17.1047 34.9701 16.9547 33.3202C16.7447 31.3252 16.1447 29.2552 14.9147 27.7852Z" fill="#F4C19F"/>
<path d="M9.01959 37.8351C8.5996 37.8351 8.2396 37.5051 8.1946 37.0851C8.0746 35.6901 8.6146 34.8501 9.09459 34.3851C9.96459 33.5451 11.2396 33.3351 12.1696 33.3051C12.0346 32.9901 11.8246 32.7201 11.5546 32.5101C10.3246 31.5352 8.10459 31.8352 8.08959 31.8352C7.63959 31.9102 7.2196 31.5952 7.1446 31.1452C7.0696 30.6952 7.3846 30.2752 7.83459 30.2002C7.95459 30.1852 10.7746 29.7802 12.5746 31.2202C13.4446 31.9102 13.9246 32.8851 14.0296 34.1151C14.0446 34.3701 13.9546 34.6101 13.7746 34.7751C13.5946 34.9401 13.3396 35.0301 13.0996 35.0001C12.5446 34.9251 10.9546 34.8951 10.2346 35.6001C9.91959 35.9151 9.78458 36.3501 9.82958 36.9651C9.87458 37.4151 9.52958 37.8201 9.07958 37.8651C9.07958 37.8351 9.04959 37.8351 9.01959 37.8351Z" fill="#EAAA7F"/>
<path d="M41.6599 64.6701C41.4199 64.6701 37.5499 64.6551 32.5849 63.3651C27.9349 62.1651 21.4399 59.5701 16.88 54.0501C16.595 53.7051 16.64 53.1801 16.985 52.8951C17.33 52.6101 17.855 52.6551 18.14 53.0001C22.3999 58.1601 28.5499 60.6201 32.9449 61.7601C37.7599 63.0051 41.5999 63.0201 41.6449 63.0201C42.0949 63.0201 42.4699 63.3951 42.4699 63.8451C42.4999 64.2951 42.1249 64.6701 41.6599 64.6701C41.6749 64.6701 41.6749 64.6701 41.6599 64.6701Z" fill="#1B1464"/>
</g>
<defs>
<clipPath id="clip0_53622_15866">
<rect width="70" height="70" rx="35" fill="white"/>
</clipPath>
</defs>
</svg>
