<svg width="30" height="30" viewBox="0 0 30 30" fill="none" xmlns="http://www.w3.org/2000/svg">
<mask id="mask0_379_2408" style="mask-type:alpha" maskUnits="userSpaceOnUse" x="0" y="0" width="30" height="30">
<rect width="30" height="30" fill="#444DF2"/>
</mask>
<g mask="url(#mask0_379_2408)">
<path d="M15.4532 20.125C15.2449 20.125 15.0416 20.0833 14.8432 20C14.6457 19.9167 14.4637 19.7917 14.297 19.625L8.48449 13.8125C8.17199 13.5 8.02074 13.1092 8.03074 12.64C8.04157 12.1717 8.20324 11.7812 8.51574 11.4688C8.82824 11.1562 9.21907 11 9.68824 11C10.1566 11 10.547 11.1562 10.8595 11.4688L15.4532 16.0938L20.0782 11.4688C20.3907 11.1562 20.7812 11 21.2495 11C21.7187 11 22.1095 11.1562 22.422 11.4688C22.7345 11.7812 22.8907 12.1717 22.8907 12.64C22.8907 13.1092 22.7345 13.5 22.422 13.8125L16.6095 19.625C16.4428 19.7917 16.2607 19.9167 16.0632 20C15.8649 20.0833 15.6616 20.125 15.4532 20.125Z" fill="#797EF3"/>
</g>
</svg>
