<svg width="10" height="11" viewBox="0 0 10 11" fill="none" xmlns="http://www.w3.org/2000/svg">
<path d="M4.99998 6.5501L1.32498 10.2251C1.18748 10.3626 1.01248 10.4313 0.799976 10.4313C0.587476 10.4313 0.412476 10.3626 0.274976 10.2251C0.137476 10.0876 0.0687256 9.9126 0.0687256 9.7001C0.0687256 9.4876 0.137476 9.3126 0.274976 9.1751L3.94998 5.5001L0.274976 1.8251C0.137476 1.6876 0.0687256 1.5126 0.0687256 1.3001C0.0687256 1.0876 0.137476 0.912598 0.274976 0.775098C0.412476 0.637598 0.587476 0.568848 0.799976 0.568848C1.01248 0.568848 1.18748 0.637598 1.32498 0.775098L4.99998 4.4501L8.67498 0.775098C8.81248 0.637598 8.98748 0.568848 9.19998 0.568848C9.41248 0.568848 9.58748 0.637598 9.72498 0.775098C9.86248 0.912598 9.93123 1.0876 9.93123 1.3001C9.93123 1.5126 9.86248 1.6876 9.72498 1.8251L6.04998 5.5001L9.72498 9.1751C9.86248 9.3126 9.93123 9.4876 9.93123 9.7001C9.93123 9.9126 9.86248 10.0876 9.72498 10.2251C9.58748 10.3626 9.41248 10.4313 9.19998 10.4313C8.98748 10.4313 8.81248 10.3626 8.67498 10.2251L4.99998 6.5501Z" fill="black"/>
</svg>
