<svg width="22" height="22" viewBox="0 0 22 22" fill="none" xmlns="http://www.w3.org/2000/svg">
<path d="M4.5252 15.925C5.45853 15.225 6.4752 14.6873 7.5752 14.312C8.6752 13.9373 9.81686 13.75 11.0002 13.75C12.1835 13.75 13.3252 13.9373 14.4252 14.312C15.5252 14.6873 16.5419 15.225 17.4752 15.925C18.0585 15.1583 18.4835 14.3706 18.7502 13.562C19.0169 12.754 19.1502 11.9 19.1502 11C19.1502 8.76662 18.3502 6.84995 16.7502 5.24995C15.1502 3.64995 13.2335 2.84995 11.0002 2.84995C8.76686 2.84995 6.8502 3.64995 5.2502 5.24995C3.6502 6.84995 2.8502 8.76662 2.8502 11C2.8502 11.9 2.98353 12.754 3.2502 13.562C3.51686 14.3706 3.94186 15.1583 4.5252 15.925ZM11.0002 12.6C9.8502 12.6 8.87953 12.204 8.0882 11.412C7.2962 10.6206 6.9002 9.64995 6.9002 8.49995C6.9002 7.34995 7.2962 6.37895 8.0882 5.58695C8.87953 4.79562 9.8502 4.39995 11.0002 4.39995C12.1502 4.39995 13.1212 4.79562 13.9132 5.58695C14.7045 6.37895 15.1002 7.34995 15.1002 8.49995C15.1002 9.64995 14.7045 10.6206 13.9132 11.412C13.1212 12.204 12.1502 12.6 11.0002 12.6ZM11.0002 21.7999C9.53353 21.7999 8.14186 21.5126 6.8252 20.938C5.50853 20.3626 4.36286 19.5873 3.3882 18.6119C2.41286 17.6373 1.63753 16.4916 1.0622 15.175C0.487529 13.8583 0.200195 12.4583 0.200195 10.975C0.200195 9.50829 0.487529 8.12062 1.0622 6.81195C1.63753 5.50395 2.41286 4.36228 3.3882 3.38695C4.36286 2.41228 5.50853 1.63728 6.8252 1.06195C8.14186 0.487284 9.54186 0.199951 11.0252 0.199951C12.4919 0.199951 13.8795 0.487284 15.1882 1.06195C16.4962 1.63728 17.6379 2.41228 18.6132 3.38695C19.5879 4.36228 20.3629 5.50395 20.9382 6.81195C21.5129 8.12062 21.8002 9.51662 21.8002 11C21.8002 12.4666 21.5129 13.8583 20.9382 15.175C20.3629 16.4916 19.5879 17.6373 18.6132 18.6119C17.6379 19.5873 16.4962 20.3626 15.1882 20.938C13.8795 21.5126 12.4835 21.7999 11.0002 21.7999ZM11.0002 19.15C11.8002 19.15 12.5835 19.0333 13.3502 18.7999C14.1169 18.5666 14.8252 18.225 15.4752 17.775C14.8252 17.3249 14.1169 16.9833 13.3502 16.75C12.5835 16.5166 11.8002 16.4 11.0002 16.4C10.2002 16.4 9.41686 16.5166 8.6502 16.75C7.88353 16.9833 7.1752 17.3249 6.5252 17.775C7.1752 18.225 7.88353 18.5666 8.6502 18.7999C9.41686 19.0333 10.2002 19.15 11.0002 19.15ZM11.0002 9.94995C11.4002 9.94995 11.7419 9.80828 12.0252 9.52495C12.3085 9.24162 12.4502 8.89995 12.4502 8.49995C12.4502 8.09995 12.3085 7.75829 12.0252 7.47495C11.7419 7.19162 11.4002 7.04995 11.0002 7.04995C10.6002 7.04995 10.2585 7.19162 9.9752 7.47495C9.69186 7.75829 9.5502 8.09995 9.5502 8.49995C9.5502 8.89995 9.69186 9.24162 9.9752 9.52495C10.2585 9.80828 10.6002 9.94995 11.0002 9.94995Z" fill="#535AF1"/>
</svg>
