<svg width="22" height="22" viewBox="0 0 22 22" fill="none" xmlns="http://www.w3.org/2000/svg">
<path d="M11.0252 16.4C11.3919 16.4 11.7045 16.2706 11.9632 16.012C12.2212 15.754 12.3502 15.4416 12.3502 15.075V12.35H15.1002C15.4669 12.35 15.7752 12.225 16.0252 11.975C16.2752 11.725 16.4002 11.4083 16.4002 11.025C16.4002 10.6583 16.2712 10.3456 16.0132 10.087C15.7545 9.82895 15.4419 9.69995 15.0752 9.69995H12.3502V6.89995C12.3502 6.53328 12.2252 6.22495 11.9752 5.97495C11.7252 5.72495 11.4085 5.59995 11.0252 5.59995C10.6585 5.59995 10.3462 5.72895 10.0882 5.98695C9.82953 6.24562 9.7002 6.55828 9.7002 6.92495V9.69995H6.9002C6.53353 9.69995 6.22519 9.82495 5.97519 10.075C5.72519 10.325 5.60019 10.6416 5.60019 11.025C5.60019 11.3916 5.72953 11.704 5.9882 11.962C6.2462 12.2206 6.55853 12.35 6.9252 12.35H9.7002V15.1C9.7002 15.4666 9.8252 15.775 10.0752 16.025C10.3252 16.275 10.6419 16.4 11.0252 16.4ZM11.0002 21.7999C9.5002 21.7999 8.09586 21.5166 6.7872 20.95C5.4792 20.3833 4.33786 19.6126 3.3632 18.638C2.38786 17.6626 1.61686 16.5206 1.0502 15.212C0.483529 13.904 0.200195 12.5 0.200195 11C0.200195 9.49995 0.483529 8.09162 1.0502 6.77495C1.61686 5.45828 2.38786 4.31262 3.3632 3.33795C4.33786 2.36262 5.4792 1.59562 6.7872 1.03695C8.09586 0.478951 9.5002 0.199951 11.0002 0.199951C12.5002 0.199951 13.9085 0.478951 15.2252 1.03695C16.5419 1.59562 17.6879 2.36262 18.6632 3.33795C19.6379 4.31262 20.4042 5.45828 20.9622 6.77495C21.5209 8.09162 21.8002 9.49995 21.8002 11C21.8002 12.5 21.5209 13.904 20.9622 15.212C20.4042 16.5206 19.6379 17.6626 18.6632 18.638C17.6879 19.6126 16.5419 20.3833 15.2252 20.95C13.9085 21.5166 12.5002 21.7999 11.0002 21.7999ZM11.0002 19.15C13.2669 19.15 15.1919 18.3583 16.7752 16.775C18.3585 15.1916 19.1502 13.2666 19.1502 11C19.1502 8.73328 18.3585 6.80828 16.7752 5.22495C15.1919 3.64162 13.2669 2.84995 11.0002 2.84995C8.73353 2.84995 6.80853 3.64162 5.22519 5.22495C3.64186 6.80828 2.8502 8.73328 2.8502 11C2.8502 13.2666 3.64186 15.1916 5.22519 16.775C6.80853 18.3583 8.73353 19.15 11.0002 19.15Z" fill="#535AF1"/>
</svg>
