<svg width="25" height="24" viewBox="0 0 25 24" fill="none" xmlns="http://www.w3.org/2000/svg">
<mask id="mask0_55744_15276" style="mask-type:alpha" maskUnits="userSpaceOnUse" x="0" y="0" width="25" height="24">
<rect x="0.643555" width="24" height="24" fill="#D9D9D9"/>
</mask>
<g mask="url(#mask0_55744_15276)">
<path d="M12.6436 22C11.2602 22 9.96022 21.7375 8.74355 21.2125C7.52689 20.6875 6.46855 19.975 5.56855 19.075C4.66855 18.175 3.95605 17.1167 3.43105 15.9C2.90605 14.6833 2.64355 13.3833 2.64355 12C2.64355 10.6167 2.90605 9.31667 3.43105 8.1C3.95605 6.88333 4.66855 5.825 5.56855 4.925C6.46855 4.025 7.52689 3.3125 8.74355 2.7875C9.96022 2.2625 11.2602 2 12.6436 2C13.3936 2 14.1227 2.07917 14.8311 2.2375C15.5394 2.39583 16.2102 2.625 16.8436 2.925C16.7769 3.09167 16.7269 3.26667 16.6936 3.45C16.6602 3.63333 16.6436 3.81667 16.6436 4C16.6436 4.23333 16.6686 4.45417 16.7186 4.6625C16.7686 4.87083 16.8352 5.06667 16.9186 5.25C16.3019 4.86667 15.6352 4.5625 14.9186 4.3375C14.2019 4.1125 13.4436 4 12.6436 4C10.4269 4 8.53939 4.77917 6.98105 6.3375C5.42272 7.89583 4.64355 9.78333 4.64355 12C4.64355 14.2167 5.42272 16.1042 6.98105 17.6625C8.53939 19.2208 10.4269 20 12.6436 20C14.8602 20 16.7477 19.2208 18.3061 17.6625C19.8644 16.1042 20.6436 14.2167 20.6436 12C20.6436 11.3333 20.5644 10.6917 20.4061 10.075C20.2477 9.45833 20.0269 8.875 19.7436 8.325C20.0102 8.54167 20.3019 8.70833 20.6186 8.825C20.9352 8.94167 21.2769 9 21.6436 9C21.7269 9 21.8144 8.99583 21.9061 8.9875C21.9977 8.97917 22.0852 8.96667 22.1686 8.95C22.3186 9.43333 22.4352 9.92917 22.5186 10.4375C22.6019 10.9458 22.6436 11.4667 22.6436 12C22.6436 13.3833 22.3811 14.6833 21.8561 15.9C21.3311 17.1167 20.6186 18.175 19.7186 19.075C18.8186 19.975 17.7602 20.6875 16.5436 21.2125C15.3269 21.7375 14.0269 22 12.6436 22ZM16.1436 11C16.5769 11 16.9352 10.8583 17.2186 10.575C17.5019 10.2917 17.6436 9.93333 17.6436 9.5C17.6436 9.06667 17.5019 8.70833 17.2186 8.425C16.9352 8.14167 16.5769 8 16.1436 8C15.7102 8 15.3519 8.14167 15.0686 8.425C14.7852 8.70833 14.6436 9.06667 14.6436 9.5C14.6436 9.93333 14.7852 10.2917 15.0686 10.575C15.3519 10.8583 15.7102 11 16.1436 11ZM9.14355 11C9.57689 11 9.93522 10.8583 10.2186 10.575C10.5019 10.2917 10.6436 9.93333 10.6436 9.5C10.6436 9.06667 10.5019 8.70833 10.2186 8.425C9.93522 8.14167 9.57689 8 9.14355 8C8.71022 8 8.35189 8.14167 8.06855 8.425C7.78522 8.70833 7.64355 9.06667 7.64355 9.5C7.64355 9.93333 7.78522 10.2917 8.06855 10.575C8.35189 10.8583 8.71022 11 9.14355 11ZM12.6436 17.5C13.8269 17.5 14.8727 17.175 15.7811 16.525C16.6894 15.875 17.3436 15.0333 17.7436 14H7.54355C7.94355 15.0333 8.59772 15.875 9.50605 16.525C10.4144 17.175 11.4602 17.5 12.6436 17.5ZM20.6436 5H19.6436C19.3602 5 19.1227 4.90417 18.9311 4.7125C18.7394 4.52083 18.6436 4.28333 18.6436 4C18.6436 3.71667 18.7394 3.47917 18.9311 3.2875C19.1227 3.09583 19.3602 3 19.6436 3H20.6436V2C20.6436 1.71667 20.7394 1.47917 20.9311 1.2875C21.1227 1.09583 21.3602 1 21.6436 1C21.9269 1 22.1644 1.09583 22.3561 1.2875C22.5477 1.47917 22.6436 1.71667 22.6436 2V3H23.6436C23.9269 3 24.1644 3.09583 24.3561 3.2875C24.5477 3.47917 24.6436 3.71667 24.6436 4C24.6436 4.28333 24.5477 4.52083 24.3561 4.7125C24.1644 4.90417 23.9269 5 23.6436 5H22.6436V6C22.6436 6.28333 22.5477 6.52083 22.3561 6.7125C22.1644 6.90417 21.9269 7 21.6436 7C21.3602 7 21.1227 6.90417 20.9311 6.7125C20.7394 6.52083 20.6436 6.28333 20.6436 6V5Z" fill="black"/>
</g>
</svg>
