<svg width="20" height="21" viewBox="0 0 20 21" fill="none" xmlns="http://www.w3.org/2000/svg">
<path d="M10 15.5C10.2833 15.5 10.521 15.404 10.713 15.212C10.9043 15.0207 11 14.7833 11 14.5V11.5H14.025C14.3083 11.5 14.5417 11.404 14.725 11.212C14.9083 11.0207 15 10.7833 15 10.5C15 10.2167 14.904 9.979 14.712 9.787C14.5207 9.59567 14.2833 9.5 14 9.5H11V6.475C11 6.19167 10.9043 5.95833 10.713 5.775C10.521 5.59167 10.2833 5.5 10 5.5C9.71667 5.5 9.47933 5.59567 9.288 5.787C9.096 5.979 9 6.21667 9 6.5V9.5H5.975C5.69167 9.5 5.45833 9.59567 5.275 9.787C5.09167 9.979 5 10.2167 5 10.5C5 10.7833 5.09567 11.0207 5.287 11.212C5.479 11.404 5.71667 11.5 6 11.5H9V14.525C9 14.8083 9.096 15.0417 9.288 15.225C9.47933 15.4083 9.71667 15.5 10 15.5ZM10 20.5C8.61667 20.5 7.31667 20.2373 6.1 19.712C4.88333 19.1873 3.825 18.475 2.925 17.575C2.025 16.675 1.31267 15.6167 0.788 14.4C0.262667 13.1833 0 11.8833 0 10.5C0 9.11667 0.262667 7.81667 0.788 6.6C1.31267 5.38333 2.025 4.325 2.925 3.425C3.825 2.525 4.88333 1.81233 6.1 1.287C7.31667 0.762333 8.61667 0.5 10 0.5C11.3833 0.5 12.6833 0.762333 13.9 1.287C15.1167 1.81233 16.175 2.525 17.075 3.425C17.975 4.325 18.6873 5.38333 19.212 6.6C19.7373 7.81667 20 9.11667 20 10.5C20 11.8833 19.7373 13.1833 19.212 14.4C18.6873 15.6167 17.975 16.675 17.075 17.575C16.175 18.475 15.1167 19.1873 13.9 19.712C12.6833 20.2373 11.3833 20.5 10 20.5ZM10 18.5C12.2167 18.5 14.1043 17.721 15.663 16.163C17.221 14.6043 18 12.7167 18 10.5C18 8.28333 17.221 6.39567 15.663 4.837C14.1043 3.279 12.2167 2.5 10 2.5C7.78333 2.5 5.896 3.279 4.338 4.837C2.77933 6.39567 2 8.28333 2 10.5C2 12.7167 2.77933 14.6043 4.338 16.163C5.896 17.721 7.78333 18.5 10 18.5Z" fill="black"/>
</svg>
