<svg width="23" height="23" viewBox="0 0 23 23" fill="none" xmlns="http://www.w3.org/2000/svg">
<path d="M11 22.8C9.49995 22.8 8.09562 22.5167 6.78695 21.9501C5.47895 21.3834 4.33762 20.6127 3.36295 19.6381C2.38762 18.6627 1.61662 17.5207 1.04995 16.212C0.483284 14.904 0.199951 13.5 0.199951 12C0.199951 10.5 0.483284 9.09172 1.04995 7.77505C1.61662 6.45838 2.38762 5.31272 3.36295 4.33805C4.33762 3.36272 5.47895 2.59572 6.78695 2.03705C8.09562 1.47905 9.49995 1.20005 11 1.20005C11.7666 1.20005 12.5126 1.27505 13.238 1.42505C13.9626 1.57505 14.65 1.79172 15.3 2.07505C15.1166 2.35838 14.9666 2.65838 14.85 2.97505C14.7333 3.29172 14.675 3.63338 14.675 4.00005C14.675 4.13338 14.6833 4.26238 14.7 4.38705C14.7166 4.51238 14.7416 4.64172 14.775 4.77505C14.2083 4.47505 13.6083 4.24572 12.975 4.08705C12.3416 3.92905 11.6833 3.85005 11 3.85005C8.73328 3.85005 6.80828 4.64172 5.22495 6.22505C3.64162 7.80838 2.84995 9.73338 2.84995 12C2.84995 14.2667 3.64162 16.1917 5.22495 17.775C6.80828 19.3584 8.73328 20.15 11 20.15C13.2666 20.15 15.1916 19.3584 16.775 17.775C18.3583 16.1917 19.15 14.2667 19.15 12C19.15 11.4667 19.1 10.95 19 10.45C18.9 9.95005 18.7583 9.46671 18.575 9.00005C18.7916 9.10005 19.021 9.17905 19.263 9.23705C19.5043 9.29572 19.75 9.32505 20 9.32505C20.25 9.32505 20.4916 9.30005 20.725 9.25005C20.9583 9.20005 21.1833 9.12505 21.4 9.02505C21.5333 9.50838 21.6333 9.99605 21.7 10.488C21.7666 10.9794 21.7999 11.4834 21.7999 12C21.7999 13.5 21.5206 14.904 20.962 16.212C20.4039 17.5207 19.6376 18.6627 18.663 19.6381C17.6876 20.6127 16.5416 21.3834 15.225 21.9501C13.9083 22.5167 12.5 22.8 11 22.8ZM14.7 11.2C15.2 11.2 15.6166 11.0334 15.95 10.7C16.2833 10.3667 16.45 9.95005 16.45 9.45005C16.45 8.95005 16.2833 8.53338 15.95 8.20005C15.6166 7.86671 15.2 7.70005 14.7 7.70005C14.2 7.70005 13.7833 7.86671 13.45 8.20005C13.1166 8.53338 12.95 8.95005 12.95 9.45005C12.95 9.95005 13.1166 10.3667 13.45 10.7C13.7833 11.0334 14.2 11.2 14.7 11.2ZM7.29995 11.2C7.79995 11.2 8.21662 11.0334 8.54995 10.7C8.88328 10.3667 9.04995 9.95005 9.04995 9.45005C9.04995 8.95005 8.88328 8.53338 8.54995 8.20005C8.21662 7.86671 7.79995 7.70005 7.29995 7.70005C6.79995 7.70005 6.38329 7.86671 6.04995 8.20005C5.71662 8.53338 5.54995 8.95005 5.54995 9.45005C5.54995 9.95005 5.71662 10.3667 6.04995 10.7C6.38329 11.0334 6.79995 11.2 7.29995 11.2ZM11 18C12.3833 18 13.5666 17.6124 14.55 16.837C15.5333 16.0624 16.2166 15.1334 16.6 14.05H5.39995C5.78328 15.1334 6.46662 16.0624 7.44995 16.837C8.43328 17.6124 9.61662 18 11 18ZM18.6749 5.32505H18C17.6333 5.32505 17.3206 5.19571 17.062 4.93705C16.804 4.67905 16.6749 4.36672 16.6749 4.00005C16.6749 3.63338 16.804 3.32072 17.062 3.06205C17.3206 2.80405 17.6333 2.67505 18 2.67505H18.6749V2.00005C18.6749 1.63338 18.804 1.32072 19.062 1.06205C19.3206 0.804049 19.6333 0.675049 20 0.675049C20.3666 0.675049 20.6793 0.804049 20.938 1.06205C21.1959 1.32072 21.325 1.63338 21.325 2.00005V2.67505H22C22.3666 2.67505 22.6793 2.80405 22.938 3.06205C23.1959 3.32072 23.325 3.63338 23.325 4.00005C23.325 4.36672 23.1959 4.67905 22.938 4.93705C22.6793 5.19571 22.3666 5.32505 22 5.32505H21.325V6.00005C21.325 6.36672 21.1959 6.67938 20.938 6.93805C20.6793 7.19605 20.3666 7.32505 20 7.32505C19.6333 7.32505 19.3206 7.19605 19.062 6.93805C18.804 6.67938 18.6749 6.36672 18.6749 6.00005V5.32505Z" fill="#535AF1"/>
</svg>
