<svg width="22" height="22" viewBox="0 0 22 22" fill="none" xmlns="http://www.w3.org/2000/svg">
<path d="M11 21.8002C9.53329 21.8002 8.14162 21.5129 6.82495 20.9382C5.50828 20.3629 4.36262 19.5875 3.38795 18.6122C2.41262 17.6375 1.63728 16.4919 1.06195 15.1752C0.487284 13.8585 0.199951 12.4669 0.199951 11.0002C0.199951 9.51686 0.487284 8.12086 1.06195 6.81219C1.63728 5.50419 2.41262 4.36253 3.38795 3.3872C4.36262 2.41253 5.50828 1.63753 6.82495 1.0622C8.14162 0.487529 9.53329 0.200195 11 0.200195C12.4833 0.200195 13.8793 0.487529 15.188 1.0622C16.496 1.63753 17.6376 2.41253 18.613 3.3872C19.5876 4.36253 20.3626 5.50419 20.938 6.81219C21.5126 8.12086 21.7999 9.51686 21.7999 11.0002V12.8252C21.7999 14.0085 21.4126 14.9502 20.638 15.6502C19.8626 16.3502 18.9583 16.7002 17.9249 16.7002C17.3416 16.7002 16.775 16.5875 16.225 16.3622C15.675 16.1375 15.2 15.8335 14.8 15.4502C14.3 15.8502 13.7043 16.1585 13.013 16.3752C12.321 16.5919 11.65 16.7002 11 16.7002C9.41662 16.7002 8.07095 16.1462 6.96295 15.0382C5.85428 13.9295 5.29995 12.5835 5.29995 11.0002C5.29995 9.41686 5.85428 8.07119 6.96295 6.96319C8.07095 5.85453 9.41662 5.3002 11 5.3002C12.5833 5.3002 13.9293 5.85453 15.038 6.96319C16.146 8.07119 16.7 9.41686 16.7 11.0002V12.8252C16.7 13.1585 16.8206 13.4462 17.062 13.6882C17.304 13.9295 17.5916 14.0502 17.9249 14.0502C18.2583 14.0502 18.5459 13.9295 18.788 13.6882C19.0293 13.4462 19.15 13.1585 19.15 12.8252V11.0002C19.15 8.76686 18.35 6.8502 16.75 5.2502C15.15 3.6502 13.2333 2.8502 11 2.8502C8.76662 2.8502 6.84995 3.6502 5.24995 5.2502C3.64995 6.8502 2.84995 8.76686 2.84995 11.0002C2.84995 13.2335 3.64995 15.1502 5.24995 16.7502C6.84995 18.3502 8.76662 19.1502 11 19.1502H14.775C15.1416 19.1502 15.454 19.2795 15.712 19.5382C15.9706 19.7962 16.1 20.1085 16.1 20.4752C16.1 20.8419 15.9706 21.1545 15.712 21.4132C15.454 21.6712 15.1416 21.8002 14.775 21.8002H11ZM11 14.0502C11.85 14.0502 12.571 13.7542 13.163 13.1622C13.7543 12.5709 14.05 11.8502 14.05 11.0002C14.05 10.1502 13.7543 9.4292 13.163 8.8372C12.571 8.24586 11.85 7.9502 11 7.9502C10.15 7.9502 9.42929 8.24586 8.83795 8.8372C8.24595 9.4292 7.94995 10.1502 7.94995 11.0002C7.94995 11.8502 8.24595 12.5709 8.83795 13.1622C9.42929 13.7542 10.15 14.0502 11 14.0502Z" fill="#535AF1"/>
</svg>
