<svg width="30" height="31" viewBox="0 0 30 31" fill="none" xmlns="http://www.w3.org/2000/svg">
<path d="M15 19.5938C14.8326 19.5938 14.6706 19.5625 14.5141 19.5C14.3567 19.4375 14.2257 19.3542 14.1211 19.25L8.34529 13.5C8.1151 13.2708 8 12.9792 8 12.625C8 12.2708 8.1151 11.9792 8.34529 11.75C8.57549 11.5208 8.86846 11.4062 9.22422 11.4062C9.57997 11.4062 9.87294 11.5208 10.1031 11.75L15 16.625L19.8969 11.75C20.1271 11.5208 20.42 11.4062 20.7758 11.4062C21.1315 11.4062 21.4245 11.5208 21.6547 11.75C21.8849 11.9792 22 12.2708 22 12.625C22 12.9792 21.8849 13.2708 21.6547 13.5L15.8789 19.25C15.7534 19.375 15.6173 19.4633 15.4709 19.515C15.3244 19.5675 15.1674 19.5938 15 19.5938Z" fill="black"/>
</svg>
