<svg width="22" height="22" viewBox="0 0 22 22" fill="none" xmlns="http://www.w3.org/2000/svg">
<path d="M5.59995 13.9499H16.4C16.6833 13.9499 16.921 13.8539 17.113 13.6619C17.3043 13.4706 17.4 13.2332 17.4 12.9499C17.4 12.6666 17.3043 12.4289 17.113 12.2369C16.921 12.0456 16.6833 11.9499 16.4 11.9499H5.59995C5.31662 11.9499 5.07928 12.0456 4.88795 12.2369C4.69595 12.4289 4.59995 12.6666 4.59995 12.9499C4.59995 13.2332 4.69595 13.4706 4.88795 13.6619C5.07928 13.8539 5.31662 13.9499 5.59995 13.9499ZM5.59995 10.5999H16.4C16.6833 10.5999 16.921 10.5039 17.113 10.3119C17.3043 10.1206 17.4 9.88324 17.4 9.5999C17.4 9.31657 17.3043 9.0789 17.113 8.8869C16.921 8.69557 16.6833 8.5999 16.4 8.5999H5.59995C5.31662 8.5999 5.07928 8.69557 4.88795 8.8869C4.69595 9.0789 4.59995 9.31657 4.59995 9.5999C4.59995 9.88324 4.69595 10.1206 4.88795 10.3119C5.07928 10.5039 5.31662 10.5999 5.59995 10.5999ZM5.59995 7.2499H16.4C16.6833 7.2499 16.921 7.15424 17.113 6.9629C17.3043 6.7709 17.4 6.53324 17.4 6.2499C17.4 5.96657 17.3043 5.7289 17.113 5.5369C16.921 5.34557 16.6833 5.2499 16.4 5.2499H5.59995C5.31662 5.2499 5.07928 5.34557 4.88795 5.5369C4.69595 5.7289 4.59995 5.96657 4.59995 6.2499C4.59995 6.53324 4.69595 6.7709 4.88795 6.9629C5.07928 7.15424 5.31662 7.2499 5.59995 7.2499ZM19.575 20.8249L17.15 18.3999H2.84995C2.11662 18.3999 1.49162 18.1416 0.974951 17.6249C0.458284 17.1082 0.199951 16.4832 0.199951 15.7499V3.5499C0.199951 2.81657 0.458284 2.19157 0.974951 1.6749C1.49162 1.15824 2.11662 0.899902 2.84995 0.899902H19.15C19.8833 0.899902 20.5083 1.15824 21.025 1.6749C21.5416 2.19157 21.7999 2.81657 21.7999 3.5499V19.8999C21.7999 20.4832 21.5333 20.8872 21 21.1119C20.4666 21.3372 19.9916 21.2416 19.575 20.8249ZM2.84995 3.5499V15.7499H18.25L19.15 16.6499V3.5499H2.84995Z" fill="#535AF1"/>
</svg>
