<svg width="40" height="40" viewBox="0 0 40 40" fill="none" xmlns="http://www.w3.org/2000/svg">
<mask id="mask0_237_558" style="mask-type:alpha" maskUnits="userSpaceOnUse" x="8" y="8" width="24" height="24">
<rect x="8" y="8" width="24" height="24" fill="#D9D9D9"/>
</mask>
<g mask="url(#mask0_237_558)">
<path d="M13 31.7C12.45 31.7 11.9792 31.5042 11.5875 31.1125C11.1958 30.7208 11 30.25 11 29.7V15.7C11 15.15 11.1958 14.6792 11.5875 14.2875C11.9792 13.8958 12.45 13.7 13 13.7H21.925L19.925 15.7H13V29.7H27V22.75L29 20.75V29.7C29 30.25 28.8042 30.7208 28.4125 31.1125C28.0208 31.5042 27.55 31.7 27 31.7H13ZM24.175 14.275L25.6 15.675L19 22.275V23.7H20.4L27.025 17.075L28.45 18.475L21.825 25.1C21.6417 25.2833 21.4292 25.4292 21.1875 25.5375C20.9458 25.6458 20.6917 25.7 20.425 25.7H18C17.7167 25.7 17.4792 25.6042 17.2875 25.4125C17.0958 25.2208 17 24.9833 17 24.7V22.275C17 22.0083 17.05 21.7542 17.15 21.5125C17.25 21.2708 17.3917 21.0583 17.575 20.875L24.175 14.275ZM28.45 18.475L24.175 14.275L26.675 11.775C27.075 11.375 27.5542 11.175 28.1125 11.175C28.6708 11.175 29.1417 11.375 29.525 11.775L30.925 13.2C31.3083 13.5833 31.5 14.05 31.5 14.6C31.5 15.15 31.3083 15.6167 30.925 16L28.45 18.475Z" fill="black"/>
</g>
</svg>
