<svg width="22" height="22" viewBox="0 0 22 22" fill="none" xmlns="http://www.w3.org/2000/svg">
<path d="M2.8502 22.5002C2.11686 22.5002 1.49186 22.2419 0.975195 21.7252C0.458529 21.2085 0.200195 20.5835 0.200195 19.8502V5.5502C0.200195 4.81686 0.458529 4.19186 0.975195 3.6752C1.49186 3.15853 2.11686 2.9002 2.8502 2.9002H12.2752L9.6252 5.5502H2.8502V19.8502H17.1502V13.0752L19.8002 10.4252V19.8502C19.8002 20.5835 19.5419 21.2085 19.0252 21.7252C18.5085 22.2419 17.8835 22.5002 17.1502 22.5002H2.8502ZM13.7502 4.2252L15.6502 6.1252L9.3252 12.4002V13.3752H10.2752L16.6002 7.0752L18.4502 8.9502L12.1752 15.2502C11.9252 15.5002 11.6375 15.6919 11.3122 15.8252C10.9875 15.9585 10.6502 16.0252 10.3002 16.0252H8.0002C7.63353 16.0252 7.32086 15.8959 7.0622 15.6372C6.8042 15.3792 6.6752 15.0669 6.6752 14.7002V12.4002C6.6752 12.0502 6.74186 11.7125 6.8752 11.3872C7.00853 11.0625 7.2002 10.7752 7.4502 10.5252L13.7502 4.2252ZM18.4502 8.9502L13.7502 4.2252L16.2252 1.7502C16.7585 1.21686 17.3919 0.950195 18.1252 0.950195C18.8585 0.950195 19.4835 1.21686 20.0002 1.7502L20.9502 2.7252C21.4669 3.25853 21.7252 3.88353 21.7252 4.6002C21.7252 5.31686 21.4669 5.93353 20.9502 6.4502L18.4502 8.9502Z" fill="#444DF2"/>
</svg>
