<svg width="24" height="25" viewBox="0 0 24 25" fill="none" xmlns="http://www.w3.org/2000/svg">
<mask id="mask0_842_12310" style="mask-type:alpha" maskUnits="userSpaceOnUse" x="0" y="0" width="24" height="25">
<path d="M0 0.5H24V24.5H0V0.5Z" fill="#D9D9D9"/>
</mask>
<g mask="url(#mask0_842_12310)">
<path d="M5 24.2C4.45 24.2 3.97917 24.0042 3.5875 23.6125C3.19583 23.2209 3 22.75 3 22.2V8.20005C3 7.65005 3.19583 7.17922 3.5875 6.78755C3.97917 6.39588 4.45 6.20005 5 6.20005H13.925L11.925 8.20005H5V22.2H19V15.25L21 13.25V22.2C21 22.75 20.8042 23.2209 20.4125 23.6125C20.0208 24.0042 19.55 24.2 19 24.2H5ZM16.175 6.77505L17.6 8.17505L11 14.775V16.2H12.4L19.025 9.57505L20.45 10.975L13.825 17.6C13.6417 17.7834 13.4292 17.9292 13.1875 18.0375C12.9458 18.1459 12.6917 18.2 12.425 18.2H10C9.71667 18.2 9.47917 18.1042 9.2875 17.9125C9.09583 17.7209 9 17.4834 9 17.2V14.775C9 14.5084 9.05 14.2542 9.15 14.0125C9.25 13.7709 9.39167 13.5584 9.575 13.375L16.175 6.77505ZM20.45 10.975L16.175 6.77505L18.675 4.27505C19.075 3.87505 19.5542 3.67505 20.1125 3.67505C20.6708 3.67505 21.1417 3.87505 21.525 4.27505L22.925 5.70005C23.3083 6.08338 23.5 6.55005 23.5 7.10005C23.5 7.65005 23.3083 8.11672 22.925 8.50005L20.45 10.975Z" fill="white"/>
</g>
</svg>
