<svg width="22" height="22" viewBox="0 0 22 22" fill="none" xmlns="http://www.w3.org/2000/svg">
<path d="M14.7 10.2002C15.2 10.2002 15.6166 10.0335 15.95 9.7002C16.2833 9.36686 16.45 8.9502 16.45 8.4502C16.45 7.9502 16.2833 7.53353 15.95 7.2002C15.6166 6.86686 15.2 6.7002 14.7 6.7002C14.2 6.7002 13.7833 6.86686 13.45 7.2002C13.1166 7.53353 12.95 7.9502 12.95 8.4502C12.95 8.9502 13.1166 9.36686 13.45 9.7002C13.7833 10.0335 14.2 10.2002 14.7 10.2002ZM7.29995 10.2002C7.79995 10.2002 8.21662 10.0335 8.54995 9.7002C8.88328 9.36686 9.04995 8.9502 9.04995 8.4502C9.04995 7.9502 8.88328 7.53353 8.54995 7.2002C8.21662 6.86686 7.79995 6.7002 7.29995 6.7002C6.79995 6.7002 6.38329 6.86686 6.04995 7.2002C5.71662 7.53353 5.54995 7.9502 5.54995 8.4502C5.54995 8.9502 5.71662 9.36686 6.04995 9.7002C6.38329 10.0335 6.79995 10.2002 7.29995 10.2002ZM11 17.0002C12.1 17.0002 13.071 16.7542 13.913 16.2622C14.7543 15.7709 15.4 15.1835 15.85 14.5002C16.0833 14.1335 16.1043 13.8002 15.913 13.5002C15.721 13.2002 15.4583 13.0502 15.125 13.0502C14.875 13.0502 14.6793 13.1002 14.538 13.2002C14.396 13.3002 14.2583 13.4335 14.125 13.6002C13.7583 14.0502 13.3083 14.4129 12.775 14.6882C12.2416 14.9629 11.65 15.1002 11 15.1002C10.35 15.1002 9.75829 14.9629 9.22495 14.6882C8.69162 14.4129 8.24162 14.0502 7.87495 13.6002C7.74162 13.4335 7.60428 13.3002 7.46295 13.2002C7.32095 13.1002 7.12495 13.0502 6.87495 13.0502C6.52495 13.0502 6.26262 13.2125 6.08795 13.5372C5.91262 13.8625 5.95828 14.2252 6.22495 14.6252C6.64162 15.2419 7.26662 15.7919 8.09995 16.2752C8.93328 16.7585 9.89995 17.0002 11 17.0002ZM11 21.8002C9.49995 21.8002 8.09562 21.5169 6.78695 20.9502C5.47895 20.3835 4.33762 19.6129 3.36295 18.6382C2.38762 17.6629 1.61662 16.5209 1.04995 15.2122C0.483284 13.9042 0.199951 12.5002 0.199951 11.0002C0.199951 9.5002 0.483284 8.09186 1.04995 6.7752C1.61662 5.45853 2.38762 4.31286 3.36295 3.3382C4.33762 2.36286 5.47895 1.59586 6.78695 1.0372C8.09562 0.479195 9.49995 0.200195 11 0.200195C12.5 0.200195 13.9083 0.479195 15.225 1.0372C16.5416 1.59586 17.6876 2.36286 18.663 3.3382C19.6376 4.31286 20.4039 5.45853 20.962 6.7752C21.5206 8.09186 21.7999 9.5002 21.7999 11.0002C21.7999 12.5002 21.5206 13.9042 20.962 15.2122C20.4039 16.5209 19.6376 17.6629 18.663 18.6382C17.6876 19.6129 16.5416 20.3835 15.225 20.9502C13.9083 21.5169 12.5 21.8002 11 21.8002ZM11 19.1502C13.2666 19.1502 15.1916 18.3585 16.775 16.7752C18.3583 15.1919 19.15 13.2669 19.15 11.0002C19.15 8.73353 18.3583 6.80853 16.775 5.22519C15.1916 3.64186 13.2666 2.8502 11 2.8502C8.73328 2.8502 6.80828 3.64186 5.22495 5.22519C3.64162 6.80853 2.84995 8.73353 2.84995 11.0002C2.84995 13.2669 3.64162 15.1919 5.22495 16.7752C6.80828 18.3585 8.73328 19.1502 11 19.1502Z" fill="#535AF1"/>
</svg>
