<svg width="22" height="16" viewBox="0 0 22 16" fill="none" xmlns="http://www.w3.org/2000/svg">
<path d="M18 10C17.7167 10 17.4793 9.904 17.288 9.712C17.096 9.52067 17 9.28333 17 9V7H15C14.7167 7 14.4793 6.904 14.288 6.712C14.096 6.52067 14 6.28333 14 6C14 5.71667 14.096 5.479 14.288 5.287C14.4793 5.09567 14.7167 5 15 5H17V3C17 2.71667 17.096 2.479 17.288 2.287C17.4793 2.09567 17.7167 2 18 2C18.2833 2 18.5207 2.09567 18.712 2.287C18.904 2.479 19 2.71667 19 3V5H21C21.2833 5 21.5207 5.09567 21.712 5.287C21.904 5.479 22 5.71667 22 6C22 6.28333 21.904 6.52067 21.712 6.712C21.5207 6.904 21.2833 7 21 7H19V9C19 9.28333 18.904 9.52067 18.712 9.712C18.5207 9.904 18.2833 10 18 10ZM8 8C6.9 8 5.95833 7.60833 5.175 6.825C4.39167 6.04167 4 5.1 4 4C4 2.9 4.39167 1.95833 5.175 1.175C5.95833 0.391667 6.9 0 8 0C9.1 0 10.0417 0.391667 10.825 1.175C11.6083 1.95833 12 2.9 12 4C12 5.1 11.6083 6.04167 10.825 6.825C10.0417 7.60833 9.1 8 8 8ZM1 16C0.716667 16 0.479333 15.904 0.288 15.712C0.096 15.5207 0 15.2833 0 15V13.2C0 12.6333 0.146 12.1123 0.438 11.637C0.729333 11.1623 1.11667 10.8 1.6 10.55C2.63333 10.0333 3.68333 9.64567 4.75 9.387C5.81667 9.129 6.9 9 8 9C9.1 9 10.1833 9.129 11.25 9.387C12.3167 9.64567 13.3667 10.0333 14.4 10.55C14.8833 10.8 15.2707 11.1623 15.562 11.637C15.854 12.1123 16 12.6333 16 13.2V15C16 15.2833 15.904 15.5207 15.712 15.712C15.5207 15.904 15.2833 16 15 16H1ZM2 14H14V13.2C14 13.0167 13.9543 12.85 13.863 12.7C13.771 12.55 13.65 12.4333 13.5 12.35C12.6 11.9 11.6917 11.5623 10.775 11.337C9.85833 11.1123 8.93333 11 8 11C7.06667 11 6.14167 11.1123 5.225 11.337C4.30833 11.5623 3.4 11.9 2.5 12.35C2.35 12.4333 2.22933 12.55 2.138 12.7C2.046 12.85 2 13.0167 2 13.2V14ZM8 6C8.55 6 9.021 5.804 9.413 5.412C9.80433 5.02067 10 4.55 10 4C10 3.45 9.80433 2.97933 9.413 2.588C9.021 2.196 8.55 2 8 2C7.45 2 6.97933 2.196 6.588 2.588C6.196 2.97933 6 3.45 6 4C6 4.55 6.196 5.02067 6.588 5.412C6.97933 5.804 7.45 6 8 6Z" fill="black"/>
</svg>
