<svg width="200" height="200" viewBox="0 0 200 200" fill="none" xmlns="http://www.w3.org/2000/svg">
<g clip-path="url(#clip0_163_197)">
<rect width="200" height="200" rx="100" fill="white"/>
<path d="M207.142 -7.14221H-7.14288V207.143H207.142V-7.14221Z" fill="#ADB0D9"/>
<path d="M124.385 207.143H29.0283C29.3712 206.114 29.714 205.129 30.0569 204.143C36.8712 184 39.5283 164.457 39.914 143.329C64.0425 149.457 89.4138 146.843 114.314 146.586C123.571 146.5 120.485 153.743 120.571 160.514C120.699 168.957 121.171 177.4 121.899 185.8C122.499 192.914 123.357 200.029 124.385 207.143Z" fill="#ADB0D9"/>
<path d="M124.385 207.143H29.0283C29.3712 206.114 29.714 205.129 30.0569 204.143C36.8712 184 39.5283 164.457 39.914 143.329C64.0425 149.457 89.4138 146.843 114.314 146.586C123.571 146.5 120.485 153.743 120.571 160.514C120.699 168.957 121.171 177.4 121.899 185.8C122.499 192.914 123.357 200.029 124.385 207.143Z" fill="#E8AE8E"/>
<path d="M56.7571 160.557C56.9286 160.729 57.0571 160.943 57.2286 161.114C59.2 163.471 61.2143 165.786 63.5714 167.8C75.7857 178.171 94.7713 179.371 109.771 182.286C118.9 184.086 128.028 184.386 137.028 181.6C147.4 178.429 156.7 171.4 161.928 161.886C168.4 150.014 168.142 135.786 167.714 122.286C167.457 114.614 167.242 106.943 166.985 99.2717C166.814 94.4717 166.685 89.6288 166.942 84.8288C167.542 73.0003 170.628 60.8289 168.1 49.0433C166 39.229 157.771 29.029 148.643 24.8719C134.2 18.3148 116.928 16.6005 101.286 18.3577C89.9713 19.6434 78.4856 20.9719 68.1142 25.6005C58.7714 29.7576 46.6858 35.029 41.7143 44.2861C35.4144 56.0289 31.8144 69.6146 30.2716 82.8146C28.9858 93.7002 29.243 104.8 30.9573 115.643C32.5858 125.886 35.3287 135.229 42.1001 143.2C46.9429 149.029 51.8714 154.814 56.7571 160.557Z" fill="#F4C19F"/>
<path d="M124.557 127.258C123.271 127.258 122.243 126.229 122.2 124.943C122.157 123.658 123.185 122.543 124.514 122.543C130.385 122.415 132.743 120.7 136.728 117.058C132.185 106.858 129.485 96.0576 128.757 84.9148C128.671 83.6291 129.657 82.472 130.943 82.3863C132.228 82.3006 133.343 83.2863 133.471 84.572C134.2 95.5434 137.071 106.643 141.743 116.586C142.171 117.529 141.957 118.6 141.228 119.329C135.785 124.429 132.571 127.086 124.685 127.258C124.6 127.258 124.6 127.258 124.557 127.258Z" fill="#1B1464"/>
<path d="M105.642 104.484C109.067 104.259 111.535 99.3856 111.155 93.5988C110.776 87.812 107.691 83.3031 104.266 83.5279C100.842 83.7527 98.3731 88.626 98.7529 94.4128C99.1327 100.2 102.217 104.708 105.642 104.484Z" fill="#1B1464"/>
<path d="M153.259 103.155C156.684 102.93 159.152 98.0567 158.772 92.27C158.393 86.4832 155.308 81.9743 151.883 82.199C148.459 82.4238 145.99 87.2972 146.37 93.084C146.75 98.8708 149.834 103.38 153.259 103.155Z" fill="#1B1464"/>
<path d="M163.985 83.6718C163.299 83.6718 162.656 83.3718 162.185 82.8575C153.871 73.0432 144.099 73.2147 144.013 73.2147C142.685 73.2575 141.613 72.229 141.571 70.9433C141.528 69.6575 142.556 68.5433 143.842 68.5004C144.313 68.5004 155.971 68.2433 165.742 79.8146C166.599 80.8004 166.471 82.3004 165.485 83.1575C165.056 83.4575 164.542 83.6718 163.985 83.6718Z" fill="#1B1464"/>
<path d="M83.1993 87.5288C83.0279 87.5288 82.8564 87.5288 82.685 87.486C81.3993 87.2288 80.585 85.9431 80.885 84.6574C80.9707 84.1431 83.7135 72.3575 107.799 65.6718C109.042 65.3289 110.371 66.0575 110.713 67.3003C111.056 68.5432 110.328 69.8717 109.085 70.2146C88.0849 76.0432 85.5135 85.6003 85.5135 85.686C85.2564 86.8003 84.3136 87.5288 83.1993 87.5288Z" fill="#1B1464"/>
<path d="M125.071 151.472C123.228 151.472 121.256 151.215 119.328 150.657C114.785 149.372 110.756 146.757 107.156 144.486C106.042 143.8 105.742 142.343 106.428 141.229C107.114 140.115 108.571 139.815 109.685 140.5C113.156 142.729 116.714 145 120.614 146.115C124.642 147.272 128.456 146.886 131.156 145.086C132.228 144.357 133.685 144.657 134.414 145.729C135.142 146.8 134.842 148.257 133.771 148.986C131.328 150.657 128.328 151.472 125.071 151.472Z" fill="#1B1464"/>
<path d="M39.5284 122.329C37.8999 115.129 39.6998 106.986 40.0427 99.6146C40.0855 98.6718 40.1713 97.6432 40.7713 97.0004C42.0141 95.6718 44.0713 96.8718 45.7427 97.4289C48.8713 98.4575 52.3855 96.7861 54.4426 94.0861C56.8855 90.9147 57.6141 86.5861 57.6998 82.4718C57.7427 80.1576 57.5712 78.1433 56.6712 76.0862C56.1141 74.8433 54.9141 71.2433 53.5426 70.7719C59.0712 72.6576 65.7569 72.3576 69.8711 67.9862C71.114 66.7005 72.014 65.1148 72.8283 63.4433C74.9283 59.0719 76.9854 51.3148 73.0426 47.4577C76.8568 51.3148 82.2997 54.0577 87.6568 52.7719C93.0996 51.4434 97.2568 44.4577 94.5997 39.1863C97.3425 44.9291 100.728 51.2719 106.6 52.8148C113.114 54.5291 120.271 47.8862 119.585 40.772C122.457 47.972 126.871 55.2148 133.728 57.9576C140.628 60.7005 150.057 56.5862 150.785 48.7862C150.614 50.8434 149.799 53.0291 149.885 55.0434C150.271 62.6291 157.085 68.4576 162.828 71.8433C168.314 75.0576 174.742 78.6147 181.342 77.5433C187.556 76.5147 190.642 71.2433 191.585 64.9862C192.185 60.8719 191.928 56.2005 189.228 53.2005C186.185 57.9576 180.571 60.7005 175.171 60.0148C178.257 58.1719 180.571 54.4862 180.057 50.7577C179.457 46.3005 175.128 44.5434 171.528 45.4005C175.085 40.8148 179.799 37.4291 179.499 30.6577C179.199 23.1578 173.157 15.4864 167.199 12.1007C164.114 10.3435 160.471 9.31496 157.042 10.1721C153.614 11.0292 150.571 14.0721 150.271 17.8006C149.371 10.4721 144.699 4.0864 138.871 0.100703C133.042 -3.885 126.142 -5.72785 119.285 -6.71356C114.871 -7.31356 110.2 -7.5707 106.214 -5.51356C102.228 -3.45643 99.3139 1.64355 100.814 6.05782C95.6711 -1.95643 86.4568 -6.24213 77.3711 -6.84213C68.2854 -7.44213 59.2426 -4.78499 50.7569 -1.31358C47.4998 0.0149899 44.157 1.64355 42.1855 4.6864C37.9856 11.2864 42.5713 20.1149 47.4141 26.2435C44.5427 19.9435 36.8284 18.4864 30.2713 18.3578C23.4571 18.2292 15.2285 19.5149 12.3571 26.1577C9.27138 33.3149 14.6285 41.2434 19.5999 47.072C12.1857 43.772 2.62857 50.1577 2.2 58.6862C1.77143 67.2148 10.6428 74.7147 18.3142 72.2719C16.4714 69.7433 12.3142 70.729 10.6428 73.429C8.97139 76.129 9.22855 79.6433 9.91426 82.7718C11.0285 87.8718 13.1714 92.6718 16.1714 96.8289C18.4856 100 23.5856 102.572 25.4713 99.0575C20.0285 99.5718 15.0571 103.943 13.6 109.557C12.1 115.172 14.1571 121.643 18.5285 125.157C20.4571 126.7 22.9856 127.729 25.3428 127.129C27.6999 126.529 29.6713 123.872 29.0713 121.386C26.7142 120.315 23.8856 122.329 23.0713 124.943C22.2999 127.557 23.0285 130.386 24.1428 132.872C26.1142 137.329 29.2856 141.186 33.1427 143.886C33.9999 144.486 35.0285 145.086 36.057 144.914C37.6427 144.657 38.5427 142.9 39.0999 141.314C41.1998 134.972 40.9427 128.8 39.5284 122.329Z" fill="#444DF2"/>
<path d="M42.6137 79.3862C39.8708 76.1291 36.0566 73.9862 30.828 73.8577C23.1566 73.6862 15.7852 78.9577 13.0424 86.1148C8.58522 97.6433 16.0423 111.743 26.1137 117.658C35.0708 122.929 45.5708 119.843 48.1851 109.429C49.3422 104.8 48.8708 99.9147 48.4422 95.2005C47.8422 89.5005 46.128 83.5862 42.6137 79.3862Z" fill="#F4C19F"/>
<path d="M25.7707 108.1C24.5707 108.1 23.5421 107.158 23.4135 105.958C23.0707 101.972 24.6135 99.5718 25.985 98.2432C28.4707 95.8433 32.1135 95.2433 34.7706 95.1575C34.3849 94.2575 33.7849 93.4861 33.0135 92.8861C29.4992 90.1004 23.1564 90.9576 23.1135 90.9576C21.8278 91.1718 20.6278 90.2719 20.4135 88.9861C20.1993 87.7004 21.0992 86.5004 22.385 86.2861C22.7278 86.2433 30.7849 85.0862 35.9278 89.2004C38.4135 91.1718 39.7849 93.9576 40.0849 97.4718C40.1277 98.2004 39.8706 98.8861 39.3563 99.3575C38.842 99.829 38.1135 100.086 37.4277 100C35.842 99.7861 31.2992 99.7004 29.2421 101.715C28.3421 102.615 27.9563 103.858 28.0849 105.615C28.2135 106.9 27.2278 108.058 25.9421 108.186C25.9421 108.1 25.8564 108.1 25.7707 108.1Z" fill="#EAAA7F"/>
<path d="M119.028 184.771C118.342 184.771 107.285 184.729 93.0996 181.043C79.8139 177.614 61.2568 170.2 48.2283 154.429C47.414 153.443 47.5426 151.943 48.5283 151.129C49.514 150.314 51.014 150.443 51.8283 151.429C63.9996 166.172 81.571 173.2 94.1281 176.457C107.885 180.014 118.857 180.057 118.985 180.057C120.271 180.057 121.342 181.129 121.342 182.414C121.428 183.7 120.357 184.771 119.028 184.771C119.071 184.771 119.071 184.771 119.028 184.771Z" fill="#1B1464"/>
</g>
<defs>
<clipPath id="clip0_163_197">
<rect width="200" height="200" rx="100" fill="white"/>
</clipPath>
</defs>
</svg>
