<svg width="30" height="30" viewBox="0 0 30 30" fill="none" xmlns="http://www.w3.org/2000/svg">
<mask id="mask0_516_6849" style="mask-type:alpha" maskUnits="userSpaceOnUse" x="0" y="0" width="30" height="30">
<rect width="30" height="30" fill="#D9D9D9"/>
</mask>
<g mask="url(#mask0_516_6849)">
<path d="M5.5 24.2814C5.08333 24.448 4.6875 24.4114 4.3125 24.1714C3.9375 23.9322 3.75 23.5835 3.75 23.1251V18.4689C3.75 18.1772 3.83333 17.9168 4 17.6876C4.16667 17.4585 4.39583 17.3126 4.6875 17.2501L13.75 15.0001L4.6875 12.7501C4.39583 12.6876 4.16667 12.5418 4 12.3126C3.83333 12.0835 3.75 11.823 3.75 11.5314V6.87513C3.75 6.4168 3.9375 6.06763 4.3125 5.82763C4.6875 5.58846 5.08333 5.55221 5.5 5.71888L24.75 13.8439C25.2708 14.073 25.5312 14.4585 25.5312 15.0001C25.5312 15.5418 25.2708 15.9272 24.75 16.1564L5.5 24.2814Z" fill="#797EF3"/>
</g>
</svg>
