<svg width="30" height="30" viewBox="0 0 30 30" fill="none" xmlns="http://www.w3.org/2000/svg">
<mask id="mask0_54497_4315" style="mask-type:alpha" maskUnits="userSpaceOnUse" x="0" y="0" width="30" height="30">
<rect width="30" height="30" fill="#D9D9D9"/>
</mask>
<g mask="url(#mask0_54497_4315)">
<path d="M5.5 24.2812C5.08333 24.4479 4.6875 24.4112 4.3125 24.1712C3.9375 23.9321 3.75 23.5833 3.75 23.125V18.4687C3.75 18.1771 3.83333 17.9167 4 17.6875C4.16667 17.4583 4.39583 17.3125 4.6875 17.25L13.75 15L4.6875 12.75C4.39583 12.6875 4.16667 12.5417 4 12.3125C3.83333 12.0833 3.75 11.8229 3.75 11.5312V6.87499C3.75 6.41666 3.9375 6.06749 4.3125 5.82749C4.6875 5.58833 5.08333 5.55208 5.5 5.71874L24.75 13.8437C25.2708 14.0729 25.5312 14.4583 25.5312 15C25.5312 15.5417 25.2708 15.9271 24.75 16.1562L5.5 24.2812Z" fill="#444DF2"/>
</g>
</svg>
