<svg width="18" height="17" viewBox="0 0 18 17" fill="none" xmlns="http://www.w3.org/2000/svg">
<path d="M4.22504 16.825C3.7917 16.825 3.45004 16.6623 3.20004 16.337C2.95004 16.0123 2.87504 15.6417 2.97504 15.225L3.57504 12.825H1.77504C1.34171 12.825 0.991705 12.6583 0.725038 12.325C0.458371 11.9917 0.383372 11.6083 0.500038 11.175C0.583372 10.8917 0.741705 10.654 0.975038 10.462C1.20837 10.2707 1.47504 10.175 1.77504 10.175H4.25004L5.07504 6.82499H2.77504C2.3417 6.82499 1.9917 6.65832 1.72504 6.32499C1.45837 5.99165 1.38337 5.60832 1.50004 5.17499C1.58337 4.89165 1.7417 4.65432 1.97504 4.46299C2.20837 4.27099 2.47504 4.17499 2.77504 4.17499H5.75004L6.50004 1.14999C6.58337 0.866655 6.74171 0.633321 6.97504 0.449988C7.20837 0.266655 7.47504 0.174988 7.77504 0.174988C8.20837 0.174988 8.55004 0.337321 8.80004 0.661988C9.05004 0.987321 9.12504 1.35832 9.02504 1.77499L8.42504 4.17499H11.75L12.5 1.14999C12.5834 0.866655 12.7417 0.633321 12.975 0.449988C13.2084 0.266655 13.475 0.174988 13.775 0.174988C14.2084 0.174988 14.55 0.337321 14.8 0.661988C15.05 0.987321 15.125 1.35832 15.025 1.77499L14.425 4.17499H16.225C16.6584 4.17499 17.0084 4.34165 17.275 4.67499C17.5417 5.00832 17.6167 5.39165 17.5 5.82499C17.4167 6.10832 17.2584 6.34565 17.025 6.53699C16.7917 6.72899 16.525 6.82499 16.225 6.82499H13.75L12.925 10.175H15.225C15.6584 10.175 16.0084 10.3417 16.275 10.675C16.5417 11.0083 16.6167 11.3917 16.5 11.825C16.4167 12.1083 16.2584 12.346 16.025 12.538C15.7917 12.7293 15.525 12.825 15.225 12.825H12.25L11.5 15.85C11.4167 16.1333 11.2584 16.3667 11.025 16.55C10.7917 16.7333 10.525 16.825 10.225 16.825C9.79171 16.825 9.45004 16.6623 9.20004 16.337C8.95004 16.0123 8.87504 15.6417 8.97504 15.225L9.57504 12.825H6.25004L5.50004 15.85C5.4167 16.1333 5.25837 16.3667 5.02504 16.55C4.7917 16.7333 4.52504 16.825 4.22504 16.825ZM6.92504 10.175H10.25L11.075 6.82499H7.75004L6.92504 10.175Z" fill="black"/>
</svg>
