<svg width="70" height="70" viewBox="0 0 70 70" fill="none" xmlns="http://www.w3.org/2000/svg">
<path d="M70 0.00158691H0V70H70V0.00158691Z" fill="#444DF2"/>
<path d="M41.1811 58.1983C40.6953 62.0972 40.2291 66.0591 40.0737 70H7.40186C7.83166 69.3406 8.34126 68.6434 8.91246 67.8832C11.7167 64.1579 13.9889 60.0336 15.6507 55.6769C16.4809 53.5 17.1599 51.2628 17.6737 48.9893C18.0321 47.4115 19.2277 43.9858 18.6915 42.4304C18.9981 43.3208 19.4307 44.144 19.9613 44.9042C21.6399 47.3079 24.3013 49.0593 27.0677 50.1652C30.7091 51.6198 34.6375 52.1812 38.4063 53.2634C39.1945 53.4902 40.0149 53.7646 40.5651 54.3735C41.4583 55.3647 41.3463 56.8739 41.1811 58.1983Z" fill="#444DF2"/>
<path d="M41.1811 58.1983C40.6953 62.0972 40.2291 66.0591 40.0737 70H7.40186C7.83166 69.3406 8.34126 68.6434 8.91246 67.8832C11.7167 64.1579 13.9889 60.0336 15.6507 55.6769C16.4809 53.5 17.1599 51.2628 17.6737 48.9893C18.0321 47.4115 19.2277 43.9858 18.6915 42.4304C18.9981 43.3208 19.4307 44.144 19.9613 44.9042C21.6399 47.3079 24.3013 49.0593 27.0677 50.1652C30.7091 51.6198 34.6375 52.1812 38.4063 53.2634C39.1945 53.4902 40.0149 53.7646 40.5651 54.3735C41.4583 55.3647 41.3463 56.8739 41.1811 58.1983Z" fill="#EAAA7F"/>
<path d="M14.8218 25.4852C14.777 22.4221 15.1018 19.3197 16.5172 16.5688C18.9448 11.8467 24.2704 8.91938 29.6814 7.89461C35.0938 6.86983 40.6588 7.46902 46.109 8.113C49.3836 8.50079 54.2668 9.09158 56.0238 12.0917C58.3464 16.0536 58.5718 21.7725 59.0338 26.2062C59.4958 30.6399 60.06 35.0624 60.5024 39.4989C60.8902 43.3894 60.7404 47.5193 59.1668 51.218C57.2866 55.6391 53.1706 59.2342 48.2902 60.4228C41.3476 62.1126 31.8668 59.9132 27.3994 54.6451C24.1192 50.777 20.4428 46.5603 18.2714 42.0216C16.0384 37.3541 15.1298 32.1854 14.875 27.07C14.8484 26.5436 14.8288 26.0144 14.8218 25.4852Z" fill="#F7C9A4"/>
<path d="M19.8114 44.4184C18.816 44.5304 17.8388 44.4352 16.9442 43.9704C15.8494 43.402 15.0864 42.3674 14.385 41.3539C10.4552 35.6826 7.45222 28.8605 6.83342 21.9251C6.59682 19.2666 7.21702 16.4064 9.08462 14.4983C9.56062 14.0125 10.1122 13.5911 10.4902 13.0255C10.9886 12.2807 11.137 11.3637 11.4562 10.5252C12.5076 7.75743 15.2936 5.80308 17.9788 4.55851C30.3338 -1.16736 45.5644 -2.02694 57.2096 5.03309C58.198 5.63228 59.1752 6.58286 59.8584 7.51384C62.7284 11.4267 59.9298 16.8852 56.3528 19.0356C51.2638 22.0959 45.9662 23.3615 40.026 22.6755C35.0392 22.0987 30.254 20.4327 25.515 18.7766C27.3672 23.3055 27.2972 28.4196 25.5864 32.9751C24.7926 35.0904 24.9886 36.244 24.9676 38.4489C24.955 39.7327 25.0054 42.7552 23.4948 43.3544C22.323 43.8192 21.0532 44.2798 19.8114 44.4184Z" fill="#1B1464"/>
<path d="M21.1931 30.8961C24.9451 33.4986 26.1015 39.9917 26.1967 44.2448C26.2009 44.4436 26.2037 44.6508 26.2919 44.83C26.5761 45.4166 22.5707 45.621 22.2459 45.6238C20.6653 45.6392 19.0833 45.4726 17.5405 45.1254C15.8661 44.7488 15.3565 44.3078 14.3611 42.8672C13.5253 41.6577 12.8715 40.3165 12.5187 38.8871C11.9461 36.5674 12.2163 33.9914 13.5225 31.9923C13.9551 31.3301 14.5025 30.7309 15.1773 30.3193C16.9973 29.2119 19.4417 29.6809 21.1931 30.8961Z" fill="#F7C9A4"/>
<path d="M24.0913 44.5262C20.8783 46.7116 16.8743 45.4208 15.7389 44.459C14.0855 43.0576 13.0299 40.9675 12.5175 38.8885C11.9449 36.5688 12.2151 33.9929 13.5213 31.9937C13.9539 31.3315 14.5013 30.7323 15.1761 30.3207C16.9961 29.212 19.4405 29.6824 21.1933 30.8961C23.1071 32.2233 24.4175 34.3862 24.7087 36.6976" fill="#F7C9A4"/>
<path d="M44.4188 36.6672C45.4489 36.5996 46.1917 35.14 46.078 33.407C45.9642 31.6741 45.037 30.3241 44.0069 30.3917C42.9769 30.4594 42.2341 31.919 42.3478 33.6519C42.4616 35.3848 43.3888 36.7348 44.4188 36.6672Z" fill="#1B1464"/>
<path d="M55.3563 33.3098C56.3864 33.2422 57.1292 31.7825 57.0155 30.0496C56.9017 28.3167 55.9745 26.9667 54.9444 27.0343C53.9144 27.1019 53.1716 28.5615 53.2853 30.2945C53.3991 32.0274 54.3263 33.3774 55.3563 33.3098Z" fill="#1B1464"/>
<path d="M51.1308 45.6392C49.5656 45.6392 48.0004 45.1758 46.9686 44.7908C46.6032 44.6536 46.417 44.2476 46.5542 43.8808C46.6914 43.5154 47.0988 43.3292 47.4642 43.4664C48.6514 43.9102 51.6026 44.8174 53.3512 43.661C53.4912 43.5686 53.5346 43.5182 53.5472 43.5C53.5514 43.4328 53.4982 43.255 53.4744 43.1766C53.0292 41.6969 52.4664 40.2255 51.9232 38.8031C51.086 36.6122 50.2208 34.3456 49.7322 31.9461C49.6538 31.5639 49.9016 31.1901 50.2838 31.1117C50.666 31.0333 51.0398 31.2811 51.1182 31.6633C51.5844 33.9494 52.4286 36.16 53.2448 38.2991C53.7978 39.7453 54.369 41.2419 54.8296 42.7692C54.9108 43.0366 55.0452 43.4832 54.8898 43.948C54.74 44.3974 54.3858 44.6718 54.1324 44.8398C53.2406 45.4278 52.1864 45.6392 51.1308 45.6392Z" fill="#1B1464"/>
<path d="M36.9307 33.2774C36.5891 33.2774 36.2881 33.0282 36.2335 32.6797C35.7589 29.6515 37.6349 26.4344 40.5049 25.3578C40.8703 25.2206 41.2777 25.4054 41.4149 25.7708C41.5521 26.1362 41.3673 26.5436 41.0019 26.6808C38.7367 27.5306 37.2555 30.0701 37.6307 32.4599C37.6909 32.8448 37.4277 33.2074 37.0413 33.2676C37.0035 33.2746 36.9671 33.2774 36.9307 33.2774Z" fill="#1B1464"/>
<path d="M57.3482 24.8567C57.0626 24.8567 56.7938 24.6817 56.6874 24.3989C56.5292 23.9775 56.1624 23.6261 55.6836 23.4343C55.2048 23.2425 54.6966 23.2439 54.2906 23.4371C53.9392 23.6065 53.5164 23.4567 53.3484 23.1053C53.179 22.7539 53.3288 22.3311 53.6802 22.1617C54.4418 21.7963 55.3644 21.7823 56.21 22.1211C57.0556 22.4599 57.7122 23.1081 58.0104 23.8991C58.1476 24.2645 57.9642 24.6719 57.5988 24.8105C57.5162 24.8413 57.4308 24.8567 57.3482 24.8567Z" fill="#1B1464"/>
<path d="M48.2594 52.9457C46.4716 52.9457 44.6824 52.4403 43.211 51.4365C42.889 51.2167 42.805 50.7771 43.0262 50.4537C43.246 50.1317 43.6856 50.0477 44.009 50.2675C46.389 51.8915 49.763 51.9657 52.213 50.4453C52.5448 50.2395 52.9802 50.3417 53.186 50.6735C53.3918 51.0053 53.2896 51.4407 52.9578 51.6465C51.5606 52.5145 49.91 52.9457 48.2594 52.9457Z" fill="#1B1464"/>
<path d="M40.2851 62.0132C40.2417 62.0132 40.1983 62.009 40.1535 62.0006C34.7425 60.9828 29.3133 57.6775 24.8683 52.6936C24.6079 52.4024 24.6345 51.9558 24.9257 51.6954C25.2169 51.435 25.6635 51.4616 25.9239 51.7528C30.1631 56.5043 35.3095 59.6514 40.4153 60.6104C40.7989 60.6832 41.0509 61.0514 40.9795 61.435C40.9151 61.7766 40.6183 62.0132 40.2851 62.0132Z" fill="#1B1464"/>
<path d="M17.3431 40.7995C16.9805 40.7995 16.6711 40.5223 16.6403 40.1541C16.5367 38.9557 17.0043 38.2361 17.4159 37.8427C18.1649 37.1273 19.2583 36.9398 20.0521 36.9104C19.9331 36.6402 19.7595 36.4148 19.5285 36.2314C18.4645 35.3816 16.5675 35.6476 16.5493 35.6504C16.1643 35.7064 15.8045 35.4404 15.7471 35.0554C15.6897 34.6704 15.9543 34.3106 16.3393 34.2518C16.4415 34.2364 18.8551 33.8878 20.4063 35.1212C21.1497 35.712 21.5683 36.545 21.6481 37.5949C21.6649 37.8077 21.5837 38.0163 21.4297 38.1633C21.2743 38.3103 21.0615 38.3775 20.8501 38.3509C20.3797 38.2907 19.0189 38.2641 18.3917 38.8661C18.1159 39.1307 18.0039 39.5115 18.0501 40.0309C18.0837 40.4201 17.7967 40.7631 17.4075 40.7967C17.3851 40.7981 17.3641 40.7995 17.3431 40.7995Z" fill="#EAAA7F"/>
</svg>
